<mxfile host="Electron" modified="2023-06-29T17:14:12.100Z" agent="Mozilla/5.0 (X11; Linux x86_64) AppleWebKit/537.36 (KHTML, like Gecko) draw.io/21.3.7 Chrome/112.0.5615.204 Electron/24.5.0 Safari/537.36" etag="gC1WzDSWV_bj10gX3Or-" version="21.3.7" type="device">
  <diagram name="Page-1" id="BBJemNlJh0GUS6872o_7">
    <mxGraphModel dx="746" dy="457" grid="1" gridSize="10" guides="1" tooltips="1" connect="1" arrows="1" fold="1" page="1" pageScale="1" pageWidth="1654" pageHeight="1169" background="none" math="0" shadow="0">
      <root>
        <mxCell id="0" />
        <mxCell id="1" parent="0" />
        <mxCell id="UQ9hMmin36GYvEVCKSaa-9" value="" style="verticalLabelPosition=bottom;verticalAlign=top;html=1;shape=mxgraph.basic.polygon;polyCoords=[[0.03,0],[0.03,0],[1,0],[1,0.21],[0.81,0.39],[0.73,0.24],[0.24,0.52],[0.13,0.53]];polyline=0;fillColor=#f8cecc;strokeColor=#b85450;comic=1;editable=1;movable=1;resizable=1;rotatable=1;deletable=1;locked=0;connectable=1;expand=0;cloneable=1;" vertex="1" parent="1">
          <mxGeometry x="40" y="250" width="1040" height="330" as="geometry" />
        </mxCell>
        <mxCell id="UQ9hMmin36GYvEVCKSaa-2" value="UNIBIBLIOTHEK" style="verticalLabelPosition=middle;verticalAlign=middle;html=1;shape=mxgraph.basic.polygon;polyCoords=[[0.9,0],[0.9,0.5],[1,0.5],[1,1],[0.75,1],[0.25,1],[0,1],[0,0]];polyline=0;horizontal=1;labelPosition=center;align=center;comic=1;editable=0;movable=0;resizable=0;rotatable=0;deletable=0;locked=0;connectable=0;expand=0;cloneable=1;" vertex="1" parent="1">
          <mxGeometry x="70" y="140" width="770" height="120" as="geometry" />
        </mxCell>
        <mxCell id="UQ9hMmin36GYvEVCKSaa-3" value="HAUS K" style="verticalLabelPosition=middle;verticalAlign=middle;html=1;shape=mxgraph.basic.polygon;polyCoords=[[0,0],[1,0],[1,1],[0,1]];polyline=0;labelPosition=center;align=center;editable=0;movable=0;resizable=0;rotatable=0;deletable=1;locked=0;connectable=1;expand=0;cloneable=1;comic=1;" vertex="1" parent="1">
          <mxGeometry x="170" y="420" width="120" height="280" as="geometry" />
        </mxCell>
        <mxCell id="UQ9hMmin36GYvEVCKSaa-4" value="HÖRSAALGEBÄUDE" style="verticalLabelPosition=middle;verticalAlign=middle;html=1;shape=mxgraph.basic.polygon;polyCoords=[[0,0],[0.5,0],[0.5,0.39],[1,0.39],[1,1],[0.03,1],[0.03,0.61],[0,0.61]];polyline=0;labelPosition=center;align=center;comic=1;editable=0;movable=0;resizable=0;rotatable=0;deletable=0;locked=0;connectable=0;expand=0;cloneable=1;" vertex="1" parent="1">
          <mxGeometry x="910" y="90" width="300" height="180" as="geometry" />
        </mxCell>
        <mxCell id="UQ9hMmin36GYvEVCKSaa-5" value="HAUS ABC" style="verticalLabelPosition=middle;verticalAlign=middle;html=1;shape=mxgraph.basic.polygon;polyCoords=[[0.46,0.64],[0.46,0.55],[0.4,0.55],[0.4,1],[0,1],[0,0.41],[0.19,0.41],[0.19,0.32],[0.33,0.32],[0.33,0.41],[0.4,0.41],[0.4,0],[0.69,0],[0.69,0.41],[0.77,0.41],[0.77,0.32],[0.9,0.32],[0.9,0.41],[0.98,0.41],[0.98,0.5],[1,0.5],[1,1],[0.69,1],[0.69,0.55],[0.62,0.55],[0.62,0.64]];polyline=0;labelPosition=center;align=center;comic=1;editable=0;movable=0;resizable=0;rotatable=0;deletable=0;locked=0;connectable=0;expand=0;cloneable=1;" vertex="1" parent="1">
          <mxGeometry x="570" y="470" width="520" height="220" as="geometry" />
        </mxCell>
        <mxCell id="UQ9hMmin36GYvEVCKSaa-6" value="HAUPTGEBÄUDE" style="verticalLabelPosition=middle;verticalAlign=middle;html=1;shape=mxgraph.basic.polygon;polyCoords=[[0.65,0.26],[0.62,0.24],[0.53,0.22],[0.32,0.2],[0.32,0],[0.5,0],[0.82,0.04],[0.97,0.08],[1,0.14],[1,0.26],[0.79,0.48],[0.03,1],[0,1],[0,0.76],[0.56,0.4],[0.65,0.3]];polyline=0;dropTarget=0;comic=1;labelPosition=center;align=center;editable=0;movable=1;resizable=0;rotatable=0;deletable=0;locked=0;connectable=1;allowArrows=0;jiggle=1;expand=0;recursiveResize=0;" vertex="1" parent="1">
          <mxGeometry x="1200" y="170" width="340" height="500" as="geometry" />
        </mxCell>
        <mxCell id="UQ9hMmin36GYvEVCKSaa-7" value="LAKE HPI" style="verticalLabelPosition=middle;verticalAlign=middle;html=1;shape=mxgraph.basic.polygon;polyCoords=[[0.36,0.47],[0.25,0.47],[0.11,0.42],[0.04,0.32],[0,0.26],[0,0.11],[0.18,0.11],[0.18,0.16],[0.71,0.16],[0.71,0.05],[1,0.05],[1,1],[0.82,0.95],[0.68,0.84],[0.54,0.63],[0.43,0.53]];polyline=0;fillColor=#dae8fc;strokeColor=#6c8ebf;labelPosition=center;align=center;comic=1;editable=0;movable=0;resizable=0;rotatable=0;deletable=0;locked=0;connectable=0;expand=0;cloneable=1;" vertex="1" parent="1">
          <mxGeometry x="800" y="310" width="280" height="190" as="geometry" />
        </mxCell>
        <mxCell id="UQ9hMmin36GYvEVCKSaa-12" value="" style="endArrow=none;html=1;rounded=0;strokeWidth=10;fillColor=#fff2cc;strokeColor=#d6b656;comic=1;" edge="1" parent="1">
          <mxGeometry width="50" height="50" relative="1" as="geometry">
            <mxPoint x="1140" y="720" as="sourcePoint" />
            <mxPoint x="1140" y="290" as="targetPoint" />
          </mxGeometry>
        </mxCell>
        <mxCell id="UQ9hMmin36GYvEVCKSaa-14" value="" style="endArrow=none;html=1;rounded=0;labelBackgroundColor=default;strokeColor=#d6b656;strokeWidth=10;fontFamily=Helvetica;fontSize=11;fontColor=default;fillColor=#fff2cc;shape=connector;comic=1;" edge="1" parent="1">
          <mxGeometry width="50" height="50" relative="1" as="geometry">
            <mxPoint x="1140" y="290" as="sourcePoint" />
            <mxPoint x="1140" y="550" as="targetPoint" />
            <Array as="points">
              <mxPoint x="1270" y="290" />
              <mxPoint x="1360" y="320" />
              <mxPoint x="1360" y="350" />
              <mxPoint x="1310" y="420" />
              <mxPoint x="1220" y="490" />
            </Array>
          </mxGeometry>
        </mxCell>
        <mxCell id="UQ9hMmin36GYvEVCKSaa-15" value="" style="endArrow=none;html=1;rounded=0;labelBackgroundColor=default;strokeColor=#d6b656;strokeWidth=10;fontFamily=Helvetica;fontSize=11;fontColor=default;fillColor=#fff2cc;shape=connector;comic=1;" edge="1" parent="1">
          <mxGeometry width="50" height="50" relative="1" as="geometry">
            <mxPoint x="1140" y="290" as="sourcePoint" />
            <mxPoint x="1140" y="540" as="targetPoint" />
            <Array as="points">
              <mxPoint x="780" y="290" />
              <mxPoint x="780" y="380" />
              <mxPoint x="1000" y="500" />
            </Array>
          </mxGeometry>
        </mxCell>
        <mxCell id="UQ9hMmin36GYvEVCKSaa-16" value="" style="endArrow=none;html=1;rounded=0;labelBackgroundColor=default;strokeColor=#d6b656;strokeWidth=10;fontFamily=Helvetica;fontSize=11;fontColor=default;fillColor=#fff2cc;shape=connector;comic=1;" edge="1" parent="1">
          <mxGeometry width="50" height="50" relative="1" as="geometry">
            <mxPoint x="1140" y="720" as="sourcePoint" />
            <mxPoint x="780" y="290" as="targetPoint" />
            <Array as="points">
              <mxPoint x="120" y="720" />
              <mxPoint x="120" y="280" />
            </Array>
          </mxGeometry>
        </mxCell>
        <mxCell id="UQ9hMmin36GYvEVCKSaa-17" value="" style="endArrow=none;html=1;rounded=0;labelBackgroundColor=default;strokeColor=#d6b656;strokeWidth=10;fontFamily=Helvetica;fontSize=11;fontColor=default;fillColor=#fff2cc;shape=connector;comic=1;" edge="1" parent="1">
          <mxGeometry width="50" height="50" relative="1" as="geometry">
            <mxPoint x="520" y="720" as="sourcePoint" />
            <mxPoint x="780" y="380" as="targetPoint" />
            <Array as="points">
              <mxPoint x="570" y="520" />
              <mxPoint x="710" y="530" />
            </Array>
          </mxGeometry>
        </mxCell>
        <mxCell id="UQ9hMmin36GYvEVCKSaa-18" value="" style="endArrow=none;html=1;rounded=0;labelBackgroundColor=default;strokeColor=#d6b656;strokeWidth=10;fontFamily=Helvetica;fontSize=11;fontColor=default;fillColor=#fff2cc;shape=connector;comic=1;" edge="1" parent="1">
          <mxGeometry width="50" height="50" relative="1" as="geometry">
            <mxPoint x="310" y="720" as="sourcePoint" />
            <mxPoint x="570" y="520" as="targetPoint" />
            <Array as="points">
              <mxPoint x="310" y="280" />
              <mxPoint x="310" y="520" />
            </Array>
          </mxGeometry>
        </mxCell>
        <mxCell id="UQ9hMmin36GYvEVCKSaa-19" value="" style="endArrow=none;html=1;rounded=0;labelBackgroundColor=default;strokeColor=#d6b656;strokeWidth=10;fontFamily=Helvetica;fontSize=11;fontColor=default;fillColor=#fff2cc;shape=connector;comic=1;" edge="1" parent="1">
          <mxGeometry width="50" height="50" relative="1" as="geometry">
            <mxPoint x="410" y="280" as="sourcePoint" />
            <mxPoint x="680" y="530" as="targetPoint" />
            <Array as="points">
              <mxPoint x="430" y="390" />
              <mxPoint x="500" y="410" />
              <mxPoint x="610" y="460" />
            </Array>
          </mxGeometry>
        </mxCell>
        <mxCell id="UQ9hMmin36GYvEVCKSaa-20" value="" style="endArrow=none;html=1;rounded=0;labelBackgroundColor=default;strokeColor=#d6b656;strokeWidth=10;fontFamily=Helvetica;fontSize=11;fontColor=default;fillColor=#fff2cc;shape=connector;comic=1;" edge="1" parent="1">
          <mxGeometry width="50" height="50" relative="1" as="geometry">
            <mxPoint x="1140" y="720" as="sourcePoint" />
            <mxPoint x="1240" y="290" as="targetPoint" />
            <Array as="points">
              <mxPoint x="1200" y="720" />
              <mxPoint x="1580" y="340" />
              <mxPoint x="1580" y="150" />
              <mxPoint x="1560" y="120" />
              <mxPoint x="1330" y="120" />
              <mxPoint x="1260" y="130" />
              <mxPoint x="1240" y="180" />
            </Array>
          </mxGeometry>
        </mxCell>
        <mxCell id="UQ9hMmin36GYvEVCKSaa-21" value="" style="rounded=0;whiteSpace=wrap;html=1;fontFamily=Helvetica;fontSize=11;fontColor=default;" vertex="1" parent="1">
          <mxGeometry x="1400" y="560" width="240" height="160" as="geometry" />
        </mxCell>
        <mxCell id="UQ9hMmin36GYvEVCKSaa-22" value="" style="rounded=0;whiteSpace=wrap;html=1;fontFamily=Helvetica;fontSize=11;fillColor=#f8cecc;strokeColor=#b85450;" vertex="1" parent="1">
          <mxGeometry x="1410" y="570" width="40" height="20" as="geometry" />
        </mxCell>
        <mxCell id="UQ9hMmin36GYvEVCKSaa-23" value="Blocked every 30&#39;" style="text;html=1;strokeColor=none;fillColor=none;align=left;verticalAlign=middle;whiteSpace=wrap;rounded=0;fontSize=11;fontFamily=Helvetica;fontColor=default;" vertex="1" parent="1">
          <mxGeometry x="1460" y="565" width="180" height="30" as="geometry" />
        </mxCell>
        <mxCell id="UQ9hMmin36GYvEVCKSaa-26" value="" style="shape=step;perimeter=stepPerimeter;whiteSpace=wrap;html=1;fixedSize=1;fontFamily=Helvetica;fontSize=11;fontColor=#333333;rotation=-45;fillColor=#f5f5f5;strokeColor=#666666;opacity=30;" vertex="1" parent="1">
          <mxGeometry x="1210" y="630" width="120" height="40" as="geometry" />
        </mxCell>
        <mxCell id="UQ9hMmin36GYvEVCKSaa-28" value="" style="shape=step;perimeter=stepPerimeter;whiteSpace=wrap;html=1;fixedSize=1;fontFamily=Helvetica;fontSize=11;fontColor=#333333;rotation=-45;fillColor=#f5f5f5;strokeColor=#666666;opacity=30;" vertex="1" parent="1">
          <mxGeometry x="1300" y="540" width="120" height="40" as="geometry" />
        </mxCell>
        <mxCell id="UQ9hMmin36GYvEVCKSaa-29" value="" style="shape=step;perimeter=stepPerimeter;whiteSpace=wrap;html=1;fixedSize=1;fontFamily=Helvetica;fontSize=11;fontColor=#333333;rotation=-45;fillColor=#f5f5f5;strokeColor=#666666;opacity=30;" vertex="1" parent="1">
          <mxGeometry x="1390" y="450" width="120" height="40" as="geometry" />
        </mxCell>
        <mxCell id="UQ9hMmin36GYvEVCKSaa-30" value="" style="shape=step;perimeter=stepPerimeter;whiteSpace=wrap;html=1;fixedSize=1;fontFamily=Helvetica;fontSize=11;fontColor=#333333;rotation=-90;fillColor=#f5f5f5;strokeColor=#666666;opacity=30;" vertex="1" parent="1">
          <mxGeometry x="1520" y="209.99999999999994" width="120" height="40" as="geometry" />
        </mxCell>
        <mxCell id="UQ9hMmin36GYvEVCKSaa-31" value="" style="shape=step;perimeter=stepPerimeter;whiteSpace=wrap;html=1;fixedSize=1;fontFamily=Helvetica;fontSize=11;fontColor=#333333;rotation=-45;fillColor=#f5f5f5;strokeColor=#666666;opacity=30;" vertex="1" parent="1">
          <mxGeometry x="1480" y="360" width="120" height="40" as="geometry" />
        </mxCell>
        <mxCell id="UQ9hMmin36GYvEVCKSaa-32" value="" style="shape=step;perimeter=stepPerimeter;whiteSpace=wrap;html=1;fixedSize=1;fontFamily=Helvetica;fontSize=11;fontColor=#333333;rotation=-180;fillColor=#f5f5f5;strokeColor=#666666;opacity=30;" vertex="1" parent="1">
          <mxGeometry x="1420" y="99.99999999999994" width="120" height="40" as="geometry" />
        </mxCell>
        <mxCell id="UQ9hMmin36GYvEVCKSaa-33" value="" style="shape=step;perimeter=stepPerimeter;whiteSpace=wrap;html=1;fixedSize=1;fontFamily=Helvetica;fontSize=11;fontColor=#333333;rotation=-180;fillColor=#f5f5f5;strokeColor=#666666;opacity=30;" vertex="1" parent="1">
          <mxGeometry x="1290" y="99.99999999999994" width="120" height="40" as="geometry" />
        </mxCell>
        <mxCell id="UQ9hMmin36GYvEVCKSaa-34" value="" style="shape=step;perimeter=stepPerimeter;whiteSpace=wrap;html=1;fixedSize=1;fontFamily=Helvetica;fontSize=11;fontColor=#333333;rotation=90;fillColor=#f5f5f5;strokeColor=#666666;opacity=30;" vertex="1" parent="1">
          <mxGeometry x="1180" y="199.99999999999994" width="120" height="40" as="geometry" />
        </mxCell>
        <mxCell id="UQ9hMmin36GYvEVCKSaa-35" value="" style="shape=step;perimeter=stepPerimeter;whiteSpace=wrap;html=1;fixedSize=1;fontFamily=Helvetica;fontSize=11;fillColor=#d5e8d4;strokeColor=#82b366;opacity=50;" vertex="1" parent="1">
          <mxGeometry x="320" y="500" width="80" height="40" as="geometry" />
        </mxCell>
        <mxCell id="UQ9hMmin36GYvEVCKSaa-37" value="" style="shape=step;perimeter=stepPerimeter;whiteSpace=wrap;html=1;fixedSize=1;fontFamily=Helvetica;fontSize=11;fillColor=#d5e8d4;strokeColor=#82b366;opacity=50;rotation=0;" vertex="1" parent="1">
          <mxGeometry x="460" y="500" width="80" height="40" as="geometry" />
        </mxCell>
        <mxCell id="UQ9hMmin36GYvEVCKSaa-38" value="" style="shape=step;perimeter=stepPerimeter;whiteSpace=wrap;html=1;fixedSize=1;fontFamily=Helvetica;fontSize=11;size=10;fillColor=#d5e8d4;strokeColor=#82b366;" vertex="1" parent="1">
          <mxGeometry x="1410" y="600" width="40" height="20" as="geometry" />
        </mxCell>
        <mxCell id="UQ9hMmin36GYvEVCKSaa-39" value="One direction only" style="text;html=1;strokeColor=none;fillColor=none;align=left;verticalAlign=middle;whiteSpace=wrap;rounded=0;fontSize=11;fontFamily=Helvetica;fontColor=default;" vertex="1" parent="1">
          <mxGeometry x="1460" y="625" width="180" height="30" as="geometry" />
        </mxCell>
        <mxCell id="UQ9hMmin36GYvEVCKSaa-40" value="" style="shape=step;perimeter=stepPerimeter;whiteSpace=wrap;html=1;fixedSize=1;fontFamily=Helvetica;fontSize=11;fontColor=#333333;rotation=0;fillColor=#f5f5f5;strokeColor=#666666;opacity=30;size=10;" vertex="1" parent="1">
          <mxGeometry x="1410" y="630" width="40" height="20" as="geometry" />
        </mxCell>
        <mxCell id="UQ9hMmin36GYvEVCKSaa-41" value="Direction inverting every 10&#39;" style="text;html=1;strokeColor=none;fillColor=none;align=left;verticalAlign=middle;whiteSpace=wrap;rounded=0;fontSize=11;fontFamily=Helvetica;fontColor=default;" vertex="1" parent="1">
          <mxGeometry x="1460" y="595" width="180" height="30" as="geometry" />
        </mxCell>
        <mxCell id="UQ9hMmin36GYvEVCKSaa-46" value="" style="shape=document;whiteSpace=wrap;html=1;boundedLbl=1;fontFamily=Helvetica;fontSize=11;fontColor=default;" vertex="1" parent="1">
          <mxGeometry x="1415" y="660" width="30" height="20" as="geometry" />
        </mxCell>
        <mxCell id="UQ9hMmin36GYvEVCKSaa-47" value="" style="shape=document;whiteSpace=wrap;html=1;boundedLbl=1;fontFamily=Helvetica;fontSize=11;fontColor=default;" vertex="1" parent="1">
          <mxGeometry x="650" y="680" width="30" height="20" as="geometry" />
        </mxCell>
        <mxCell id="UQ9hMmin36GYvEVCKSaa-48" value="" style="shape=document;whiteSpace=wrap;html=1;boundedLbl=1;fontFamily=Helvetica;fontSize=11;fontColor=default;rotation=-180;" vertex="1" parent="1">
          <mxGeometry x="840" y="460" width="30" height="20" as="geometry" />
        </mxCell>
        <mxCell id="UQ9hMmin36GYvEVCKSaa-49" value="" style="shape=document;whiteSpace=wrap;html=1;boundedLbl=1;fontFamily=Helvetica;fontSize=11;fontColor=default;rotation=-90;" vertex="1" parent="1">
          <mxGeometry x="1080" y="610" width="30" height="20" as="geometry" />
        </mxCell>
        <mxCell id="UQ9hMmin36GYvEVCKSaa-50" value="" style="shape=document;whiteSpace=wrap;html=1;boundedLbl=1;fontFamily=Helvetica;fontSize=11;fontColor=default;rotation=-219;" vertex="1" parent="1">
          <mxGeometry x="1225" y="500" width="30" height="20" as="geometry" />
        </mxCell>
        <mxCell id="UQ9hMmin36GYvEVCKSaa-51" value="" style="shape=document;whiteSpace=wrap;html=1;boundedLbl=1;fontFamily=Helvetica;fontSize=11;fontColor=default;rotation=-45;" vertex="1" parent="1">
          <mxGeometry x="1450" y="405" width="30" height="20" as="geometry" />
        </mxCell>
        <mxCell id="UQ9hMmin36GYvEVCKSaa-52" value="" style="shape=document;whiteSpace=wrap;html=1;boundedLbl=1;fontFamily=Helvetica;fontSize=11;fontColor=default;rotation=90;" vertex="1" parent="1">
          <mxGeometry x="1180" y="595" width="30" height="20" as="geometry" />
        </mxCell>
        <mxCell id="UQ9hMmin36GYvEVCKSaa-53" value="" style="shape=document;whiteSpace=wrap;html=1;boundedLbl=1;fontFamily=Helvetica;fontSize=11;fontColor=default;rotation=-90;" vertex="1" parent="1">
          <mxGeometry x="280" y="640" width="30" height="20" as="geometry" />
        </mxCell>
        <mxCell id="UQ9hMmin36GYvEVCKSaa-55" value="" style="shape=document;whiteSpace=wrap;html=1;boundedLbl=1;fontFamily=Helvetica;fontSize=11;fontColor=default;rotation=-90;" vertex="1" parent="1">
          <mxGeometry x="280" y="490" width="30" height="20" as="geometry" />
        </mxCell>
        <mxCell id="UQ9hMmin36GYvEVCKSaa-56" value="" style="shape=document;whiteSpace=wrap;html=1;boundedLbl=1;fontFamily=Helvetica;fontSize=11;fontColor=default;rotation=89;" vertex="1" parent="1">
          <mxGeometry x="150" y="650" width="30" height="20" as="geometry" />
        </mxCell>
        <mxCell id="UQ9hMmin36GYvEVCKSaa-57" value="" style="shape=document;whiteSpace=wrap;html=1;boundedLbl=1;fontFamily=Helvetica;fontSize=11;fontColor=default;rotation=-180;" vertex="1" parent="1">
          <mxGeometry x="200" y="410" width="30" height="20" as="geometry" />
        </mxCell>
        <mxCell id="UQ9hMmin36GYvEVCKSaa-58" value="" style="shape=document;whiteSpace=wrap;html=1;boundedLbl=1;fontFamily=Helvetica;fontSize=11;fontColor=default;" vertex="1" parent="1">
          <mxGeometry x="1030" y="680" width="30" height="20" as="geometry" />
        </mxCell>
        <mxCell id="UQ9hMmin36GYvEVCKSaa-59" value="Pizza drop-off location" style="text;html=1;strokeColor=none;fillColor=none;align=left;verticalAlign=middle;whiteSpace=wrap;rounded=0;fontSize=11;fontFamily=Helvetica;fontColor=default;" vertex="1" parent="1">
          <mxGeometry x="1460" y="655" width="180" height="30" as="geometry" />
        </mxCell>
      </root>
    </mxGraphModel>
  </diagram>
</mxfile>
